<?xml version="1.0" encoding="UTF-8"?>
<svg xmlns="http://www.w3.org/2000/svg" style="display: none;">
  <symbol fill="none" viewBox="0 0 24 24" stroke-width="1.5" stroke="currentColor" aria-hidden="true" id="hr-chevron-double-down"><path stroke-linecap="round" stroke-linejoin="round" d="M19.5 5.25l-7.5 7.5-7.5-7.5m15 6l-7.5 7.5-7.5-7.5"/></symbol>
  <symbol fill="none" viewBox="0 0 24 24" stroke-width="1.5" stroke="currentColor" aria-hidden="true" id="hr-chevron-double-left"><path stroke-linecap="round" stroke-linejoin="round" d="M18.75 19.5l-7.5-7.5 7.5-7.5m-6 15L5.25 12l7.5-7.5"/></symbol>
  <symbol fill="none" viewBox="0 0 24 24" stroke-width="1.5" stroke="currentColor" aria-hidden="true" id="hr-chevron-double-right"><path stroke-linecap="round" stroke-linejoin="round" d="M11.25 4.5l7.5 7.5-7.5 7.5m-6-15l7.5 7.5-7.5 7.5"/></symbol>
  <symbol fill="none" viewBox="0 0 24 24" stroke-width="1.5" stroke="currentColor" aria-hidden="true" id="hr-chevron-double-up"><path stroke-linecap="round" stroke-linejoin="round" d="M4.5 12.75l7.5-7.5 7.5 7.5m-15 6l7.5-7.5 7.5 7.5"/></symbol>
  <symbol fill="none" viewBox="0 0 24 24" stroke-width="1.5" stroke="currentColor" aria-hidden="true" id="hr-chevron-down"><path stroke-linecap="round" stroke-linejoin="round" d="M19.5 8.25l-7.5 7.5-7.5-7.5"/></symbol>
  <symbol fill="none" viewBox="0 0 24 24" stroke-width="1.5" stroke="currentColor" aria-hidden="true" id="hr-chevron-left"><path stroke-linecap="round" stroke-linejoin="round" d="M15.75 19.5L8.25 12l7.5-7.5"/></symbol>
  <symbol fill="none" viewBox="0 0 24 24" stroke-width="1.5" stroke="currentColor" aria-hidden="true" id="hr-chevron-right"><path stroke-linecap="round" stroke-linejoin="round" d="M8.25 4.5l7.5 7.5-7.5 7.5"/></symbol>
  <symbol fill="none" viewBox="0 0 24 24" stroke-width="1.5" stroke="currentColor" aria-hidden="true" id="hr-chevron-up"><path stroke-linecap="round" stroke-linejoin="round" d="M4.5 15.75l7.5-7.5 7.5 7.5"/></symbol>
  <symbol fill="none" viewBox="0 0 24 24" stroke-width="1.5" stroke="currentColor" aria-hidden="true" id="hr-arrow-down"><path stroke-linecap="round" stroke-linejoin="round" d="M19.5 13.5L12 21m0 0l-7.5-7.5M12 21V3"/></symbol>
  <symbol fill="none" viewBox="0 0 24 24" stroke-width="1.5" stroke="currentColor" aria-hidden="true" id="hr-arrow-left"><path stroke-linecap="round" stroke-linejoin="round" d="M10.5 19.5L3 12m0 0l7.5-7.5M3 12h18"/></symbol>
  <symbol fill="none" viewBox="0 0 24 24" stroke-width="1.5" stroke="currentColor" aria-hidden="true" id="hr-arrow-right"><path stroke-linecap="round" stroke-linejoin="round" d="M13.5 4.5L21 12m0 0l-7.5 7.5M21 12H3"/></symbol>
  <symbol fill="none" viewBox="0 0 24 24" stroke-width="1.5" stroke="currentColor" aria-hidden="true" id="hr-arrow-up"><path stroke-linecap="round" stroke-linejoin="round" d="M4.5 10.5L12 3m0 0l7.5 7.5M12 3v18"/></symbol>
  <symbol fill="none" viewBox="0 0 24 24" stroke-width="1.5" stroke="currentColor" aria-hidden="true" id="hr-at-symbol"><path stroke-linecap="round" d="M16.5 12a4.5 4.5 0 11-9 0 4.5 4.5 0 019 0zm0 0c0 1.657 1.007 3 2.25 3S21 13.657 21 12a9 9 0 10-2.636 6.364M16.5 12V8.25"/></symbol>
  <symbol fill="none" viewBox="0 0 24 24" stroke-width="1.5" stroke="currentColor" aria-hidden="true" id="hr-backward"><path stroke-linecap="round" stroke-linejoin="round" d="M21 16.811c0 .864-.933 1.405-1.683.977l-7.108-4.062a1.125 1.125 0 010-1.953l7.108-4.062A1.125 1.125 0 0121 8.688v8.123zM11.25 16.811c0 .864-.933 1.405-1.683.977l-7.108-4.062a1.125 1.125 0 010-1.953L9.567 7.71a1.125 1.125 0 011.683.977v8.123z"/></symbol>
  <symbol fill="none" viewBox="0 0 24 24" stroke-width="1.5" stroke="currentColor" aria-hidden="true" id="hr-bars-3"><path stroke-linecap="round" stroke-linejoin="round" d="M3.75 6.75h16.5M3.75 12h16.5m-16.5 5.25h16.5"/></symbol>
  <symbol fill="none" viewBox="0 0 24 24" stroke-width="1.5" stroke="currentColor" aria-hidden="true" id="hr-bell"><path stroke-linecap="round" stroke-linejoin="round" d="M14.857 17.082a23.848 23.848 0 005.454-1.31A8.967 8.967 0 0118 9.75v-.7V9A6 6 0 006 9v.75a8.967 8.967 0 01-2.312 6.022c1.733.64 3.56 1.085 5.455 1.31m5.714 0a24.255 24.255 0 01-5.714 0m5.714 0a3 3 0 11-5.714 0"/></symbol>
  <symbol fill="none" viewBox="0 0 24 24" stroke-width="1.5" stroke="currentColor" aria-hidden="true" id="hr-bookmark"><path stroke-linecap="round" stroke-linejoin="round" d="M17.593 3.322c1.1.128 1.907 1.077 1.907 2.185V21L12 17.25 4.5 21V5.507c0-1.108.806-2.057 1.907-2.185a48.507 48.507 0 0111.186 0z"/></symbol>
  <symbol fill="none" viewBox="0 0 24 24" stroke-width="1.5" stroke="currentColor" aria-hidden="true" id="hr-briefcase"><path stroke-linecap="round" stroke-linejoin="round" d="M20.25 14.15v4.25c0 1.094-.787 2.036-1.872 2.18-2.087.277-4.216.42-6.378.42s-4.291-.143-6.378-.42c-1.085-.144-1.872-1.086-1.872-2.18v-4.25m16.5 0a2.18 2.18 0 00.75-1.661V8.706c0-1.081-.768-2.015-1.837-2.175a48.114 48.114 0 00-3.413-.387m4.5 8.006c-.194.165-.42.295-.673.38A23.978 23.978 0 0112 15.75c-2.648 0-5.195-.429-7.577-1.22a2.016 2.016 0 01-.673-.38m0 0A2.18 2.18 0 013 12.489V8.706c0-1.081.768-2.015 1.837-2.175a48.111 48.111 0 013.413-.387m7.5 0V5.25A2.25 2.25 0 0013.5 3h-3a2.25 2.25 0 00-2.25 2.25v.894m7.5 0a48.667 48.667 0 00-7.5 0M12 12.75h.008v.008H12v-.008z"/></symbol>
  <symbol fill="none" viewBox="0 0 24 24" stroke-width="1.5" stroke="currentColor" aria-hidden="true" id="hr-calendar"><path stroke-linecap="round" stroke-linejoin="round" d="M6.75 3v2.25M17.25 3v2.25M3 18.75V7.5a2.25 2.25 0 012.25-2.25h13.5A2.25 2.25 0 0121 7.5v11.25m-18 0A2.25 2.25 0 005.25 21h13.5A2.25 2.25 0 0021 18.75m-18 0v-7.5A2.25 2.25 0 015.25 9h13.5A2.25 2.25 0 0121 11.25v7.5"/></symbol>
  <symbol fill="none" viewBox="0 0 24 24" stroke-width="1.5" stroke="currentColor" aria-hidden="true" id="hr-academic-cap"><path stroke-linecap="round" stroke-linejoin="round" d="M4.26 10.147a60.436 60.436 0 00-.491 6.347A48.627 48.627 0 0112 20.904a48.627 48.627 0 018.232-4.41 60.46 60.46 0 00-.491-6.347m-15.482 0a50.57 50.57 0 00-2.658-.813A59.905 59.905 0 0112 3.493a59.902 59.902 0 0110.399 5.84c-.896.248-1.783.52-2.658.814m-15.482 0A50.697 50.697 0 0112 13.489a50.702 50.702 0 017.74-3.342M6.75 15a.75.75 0 100-1.5.75.75 0 000 1.5zm0 0v-3.675A55.378 55.378 0 0112 8.443m-7.007 11.55A5.981 5.981 0 006.75 15.75v-1.5"/></symbol>
  <symbol fill="none" viewBox="0 0 24 24" stroke-width="1.5" stroke="currentColor" aria-hidden="true" id="hr-chart-pie"><path stroke-linecap="round" stroke-linejoin="round" d="M10.5 6a7.5 7.5 0 107.5 7.5h-7.5V6z"/><path stroke-linecap="round" stroke-linejoin="round" d="M13.5 10.5H21A7.5 7.5 0 0013.5 3v7.5z"/></symbol>
  <symbol fill="none" viewBox="0 0 24 24" stroke-width="1.5" stroke="currentColor" aria-hidden="true" id="hr-check-circle"><path stroke-linecap="round" stroke-linejoin="round" d="M9 12.75L11.25 15 15 9.75M21 12a9 9 0 11-18 0 9 9 0 0118 0z"/></symbol>
  <symbol fill="none" viewBox="0 0 24 24" stroke-width="1.5" stroke="currentColor" aria-hidden="true" id="hr-check"><path stroke-linecap="round" stroke-linejoin="round" d="M4.5 12.75l6 6 9-13.5"/></symbol>
  <symbol fill="none" viewBox="0 0 24 24" stroke-width="1.5" stroke="currentColor" aria-hidden="true" id="hr-clock"><path stroke-linecap="round" stroke-linejoin="round" d="M12 6v6h4.5m4.5 0a9 9 0 11-18 0 9 9 0 0118 0z"/></symbol>
  <symbol fill="none" viewBox="0 0 24 24" stroke-width="1.5" stroke="currentColor" aria-hidden="true" id="hr-code-bracket"><path stroke-linecap="round" stroke-linejoin="round" d="M17.25 6.75L22.5 12l-5.25 5.25m-10.5 0L1.5 12l5.25-5.25m7.5-3l-4.5 16.5"/></symbol>
  <symbol fill="none" viewBox="0 0 24 24" stroke-width="1.5" stroke="currentColor" aria-hidden="true" id="hr-cog"><path stroke-linecap="round" stroke-linejoin="round" d="M4.5 12a7.5 7.5 0 0015 0m-15 0a7.5 7.5 0 1115 0m-15 0H3m16.5 0H21m-1.5 0H12m-8.457 3.077l1.41-.513m14.095-5.13l1.41-.513M5.106 17.785l1.15-.964m11.49-9.642l1.149-.964M7.501 19.795l.75-1.3m7.5-12.99l.75-1.3m-6.063 16.658l.26-1.477m2.605-14.772l.26-1.477m0 17.726l-.26-1.477M10.698 4.614l-.26-1.477M16.5 19.794l-.75-1.299M7.5 4.205L12 12m6.894 5.785l-1.149-.964M6.256 7.178l-1.15-.964m15.352 8.864l-1.41-.513M4.954 9.435l-1.41-.514M12.002 12l-3.75 6.495"/></symbol>
  <symbol fill="none" viewBox="0 0 24 24" stroke-width="1.5" stroke="currentColor" aria-hidden="true" id="hr-chat-bubble-left"><path stroke-linecap="round" stroke-linejoin="round" d="M2.25 12.76c0 1.6 1.123 2.994 2.707 3.227 1.087.16 2.185.283 3.293.369V21l4.076-4.076a1.526 1.526 0 011.037-.443 48.282 48.282 0 005.68-.494c1.584-.233 2.707-1.626 2.707-3.228V6.741c0-1.602-1.123-2.995-2.707-3.228A48.394 48.394 0 0012 3c-2.392 0-4.744.175-7.043.513C3.373 3.746 2.25 5.14 2.25 6.741v6.018z"/></symbol>
  <symbol fill="none" viewBox="0 0 24 24" stroke-width="1.5" stroke="currentColor" aria-hidden="true" id="hr-chat-bubble-left-right"><path stroke-linecap="round" stroke-linejoin="round" d="M20.25 8.511c.884.284 1.5 1.128 1.5 2.097v4.286c0 1.136-.847 2.1-1.98 2.193-.34.027-.68.052-1.02.072v3.091l-3-3c-1.354 0-2.694-.055-4.02-.163a2.115 2.115 0 01-.825-.242m9.345-8.334a2.126 2.126 0 00-.476-.095 48.64 48.64 0 00-8.048 0c-1.131.094-1.976 1.057-1.976 2.192v4.286c0 .837.46 1.58 1.155 1.951m9.345-8.334V6.637c0-1.621-1.152-3.026-2.76-3.235A48.455 48.455 0 0011.25 3c-2.115 0-4.198.137-6.24.402-1.608.209-2.76 1.614-2.76 3.235v6.226c0 1.621 1.152 3.026 2.76 3.235.577.075 1.157.14 1.74.194V21l4.155-4.155"/></symbol>
  <symbol fill="none" viewBox="0 0 24 24" stroke-width="1.5" stroke="currentColor" aria-hidden="true" id="hr-document-duplicate"><path stroke-linecap="round" stroke-linejoin="round" d="M15.75 17.25v3.375c0 .621-.504 1.125-1.125 1.125h-9.75a1.125 1.125 0 01-1.125-1.125V7.875c0-.621.504-1.125 1.125-1.125H6.75a9.06 9.06 0 011.5.124m7.5 10.376h3.375c.621 0 1.125-.504 1.125-1.125V11.25c0-4.46-3.243-8.161-7.5-8.876a9.06 9.06 0 00-1.5-.124H9.375c-.621 0-1.125.504-1.125 1.125v3.5m7.5 10.375H9.375a1.125 1.125 0 01-1.125-1.125v-9.25m12 6.625v-1.875a3.375 3.375 0 00-3.375-3.375h-1.5a1.125 1.125 0 01-1.125-1.125v-1.5a3.375 3.375 0 00-3.375-3.375H9.75"/></symbol>
  <symbol fill="none" viewBox="0 0 24 24" stroke-width="1.5" stroke="currentColor" aria-hidden="true" id="hr-cube"><path stroke-linecap="round" stroke-linejoin="round" d="M21 7.5l-9-5.25L3 7.5m18 0l-9 5.25m9-5.25v9l-9 5.25M3 7.5l9 5.25M3 7.5v9l9 5.25m0-9v9"/></symbol>
  <symbol fill="none" viewBox="0 0 24 24" stroke-width="1.5" stroke="currentColor" aria-hidden="true" id="hr-heart"><path stroke-linecap="round" stroke-linejoin="round" d="M21 8.25c0-2.485-2.099-4.5-4.688-4.5-1.935 0-3.597 1.126-4.312 2.733-.715-1.607-2.377-2.733-4.313-2.733C5.1 3.75 3 5.765 3 8.25c0 7.22 9 12 9 12s9-4.78 9-12z"/></symbol>
  <symbol fill="none" viewBox="0 0 24 24" stroke-width="1.5" stroke="currentColor" aria-hidden="true" id="hr-arrow-down-tray"><path stroke-linecap="round" stroke-linejoin="round" d="M3 16.5v2.25A2.25 2.25 0 005.25 21h13.5A2.25 2.25 0 0021 18.75V16.5M16.5 12L12 16.5m0 0L7.5 12m4.5 4.5V3"/></symbol>
  <symbol fill="none" viewBox="0 0 24 24" stroke-width="1.5" stroke="currentColor" aria-hidden="true" id="hr-pencil"><path stroke-linecap="round" stroke-linejoin="round" d="M16.862 4.487l1.687-1.688a1.875 1.875 0 112.652 2.652L6.832 19.82a4.5 4.5 0 01-1.897 1.13l-2.685.8.8-2.685a4.5 4.5 0 011.13-1.897L16.863 4.487zm0 0L19.5 7.125"/></symbol>
  <symbol fill="none" viewBox="0 0 24 24" stroke-width="1.5" stroke="currentColor" aria-hidden="true" id="hr-envelope"><path stroke-linecap="round" stroke-linejoin="round" d="M21.75 6.75v10.5a2.25 2.25 0 01-2.25 2.25h-15a2.25 2.25 0 01-2.25-2.25V6.75m19.5 0A2.25 2.25 0 0019.5 4.5h-15a2.25 2.25 0 00-2.25 2.25m19.5 0v.243a2.25 2.25 0 01-1.07 1.916l-7.5 4.615a2.25 2.25 0 01-2.36 0L3.32 8.91a2.25 2.25 0 01-1.07-1.916V6.75"/></symbol>
  <symbol fill="none" viewBox="0 0 24 24" stroke-width="1.5" stroke="currentColor" aria-hidden="true" id="hr-arrows-right-left"><path stroke-linecap="round" stroke-linejoin="round" d="M7.5 21L3 16.5m0 0L7.5 12M3 16.5h13.5m0-13.5L21 7.5m0 0L16.5 12M21 7.5H7.5"/></symbol>
  <symbol fill="none" viewBox="0 0 24 24" stroke-width="1.5" stroke="currentColor" aria-hidden="true" id="hr-arrow-top-right-on-square"><path stroke-linecap="round" stroke-linejoin="round" d="M13.5 6H5.25A2.25 2.25 0 003 8.25v10.5A2.25 2.25 0 005.25 21h10.5A2.25 2.25 0 0018 18.75V10.5m-10.5 6L21 3m0 0h-5.25M21 3v5.25"/></symbol>
  <symbol fill="none" viewBox="0 0 24 24" stroke-width="1.5" stroke="currentColor" aria-hidden="true" id="hr-eye-slash"><path stroke-linecap="round" stroke-linejoin="round" d="M3.98 8.223A10.477 10.477 0 001.934 12C3.226 16.338 7.244 19.5 12 19.5c.993 0 1.953-.138 2.863-.395M6.228 6.228A10.45 10.45 0 0112 4.5c4.756 0 8.773 3.162 10.065 7.498a10.523 10.523 0 01-4.293 5.774M6.228 6.228L3 3m3.228 3.228l3.65 3.65m7.894 7.894L21 21m-3.228-3.228l-3.65-3.65m0 0a3 3 0 10-4.243-4.243m4.242 4.242L9.88 9.88"/></symbol>
  <symbol fill="none" viewBox="0 0 24 24" stroke-width="1.5" stroke="currentColor" aria-hidden="true" id="hr-eye"><path stroke-linecap="round" stroke-linejoin="round" d="M2.036 12.322a1.012 1.012 0 010-.639C3.423 7.51 7.36 4.5 12 4.5c4.638 0 8.573 3.007 9.963 7.178.07.207.07.431 0 .639C20.577 16.49 16.64 19.5 12 19.5c-4.638 0-8.573-3.007-9.963-7.178z"/><path stroke-linecap="round" stroke-linejoin="round" d="M15 12a3 3 0 11-6 0 3 3 0 016 0z"/></symbol>
  <symbol fill="none" viewBox="0 0 24 24" stroke-width="1.5" stroke="currentColor" aria-hidden="true" id="hr-photo"><path stroke-linecap="round" stroke-linejoin="round" d="M2.25 15.75l5.159-5.159a2.25 2.25 0 013.182 0l5.159 5.159m-1.5-1.5l1.409-1.409a2.25 2.25 0 013.182 0l2.909 2.909m-18 3.75h16.5a1.5 1.5 0 001.5-1.5V6a1.5 1.5 0 00-1.5-1.5H3.75A1.5 1.5 0 002.25 6v12a1.5 1.5 0 001.5 1.5zm10.5-11.25h.008v.008h-.008V8.25zm.375 0a.375.375 0 11-.75 0 .375.375 0 01.75 0z"/></symbol>
  <symbol fill="none" viewBox="0 0 24 24" stroke-width="1.5" stroke="currentColor" aria-hidden="true" id="hr-moon"><path stroke-linecap="round" stroke-linejoin="round" d="M21.752 15.002A9.718 9.718 0 0118 15.75c-5.385 0-9.75-4.365-9.75-9.75 0-1.33.266-2.597.748-3.752A9.753 9.753 0 003 11.25C3 16.635 7.365 21 12.75 21a9.753 9.753 0 009.002-5.998z"/></symbol>
  <symbol fill="none" viewBox="0 0 24 24" stroke-width="1.5" stroke="currentColor" aria-hidden="true" id="hr-face-smile"><path stroke-linecap="round" stroke-linejoin="round" d="M15.182 15.182a4.5 4.5 0 01-6.364 0M21 12a9 9 0 11-18 0 9 9 0 0118 0zM9.75 9.75c0 .414-.168.75-.375.75S9 10.164 9 9.75 9.168 9 9.375 9s.375.336.375.75zm-.375 0h.008v.015h-.008V9.75zm5.625 0c0 .414-.168.75-.375.75s-.375-.336-.375-.75.168-.75.375-.75.375.336.375.75zm-.375 0h.008v.015h-.008V9.75z"/></symbol>
  <symbol fill="none" viewBox="0 0 24 24" stroke-width="1.5" stroke="currentColor" aria-hidden="true" id="hr-sun"><path stroke-linecap="round" stroke-linejoin="round" d="M12 3v2.25m6.364.386l-1.591 1.591M21 12h-2.25m-.386 6.364l-1.591-1.591M12 18.75V21m-4.773-4.227l-1.591 1.591M5.25 12H3m4.227-4.773L5.636 5.636M15.75 12a3.75 3.75 0 11-7.5 0 3.75 3.75 0 017.5 0z"/></symbol>
  <symbol fill="none" viewBox="0 0 24 24" stroke-width="1.5" stroke="currentColor" aria-hidden="true" id="hr-hand-thumb-down"><path stroke-linecap="round" stroke-linejoin="round" d="M7.5 15h2.25m8.024-9.75c.011.05.028.1.052.148.591 1.2.924 2.55.924 3.977a8.96 8.96 0 01-.999 4.125m.023-8.25c-.076-.365.183-.75.575-.75h.908c.889 0 1.713.518 1.972 1.368.339 1.11.521 2.287.521 3.507 0 1.553-.295 3.036-.831 4.398C20.613 14.547 19.833 15 19 15h-1.053c-.472 0-.745-.556-.5-.96a8.95 8.95 0 00.303-.54m.023-8.25H16.48a4.5 4.5 0 01-1.423-.23l-3.114-1.04a4.5 4.5 0 00-1.423-.23H6.504c-.618 0-1.217.247-1.605.729A11.95 11.95 0 002.25 12c0 .434.023.863.068 1.285C2.427 14.306 3.346 15 4.372 15h3.126c.618 0 .991.724.725 1.282A7.471 7.471 0 007.5 19.5a2.25 2.25 0 002.25 2.25.75.75 0 00.75-.75v-.633c0-.573.11-1.14.322-1.672.304-.76.93-1.33 1.653-1.715a9.04 9.04 0 002.86-2.4c.498-.634 1.226-1.08 2.032-1.08h.384"/></symbol>
  <symbol fill="none" viewBox="0 0 24 24" stroke-width="1.5" stroke="currentColor" aria-hidden="true" id="hr-hand-thumb-up"><path stroke-linecap="round" stroke-linejoin="round" d="M6.633 10.5c.806 0 1.533-.446 2.031-1.08a9.041 9.041 0 012.861-2.4c.723-.384 1.35-.956 1.653-1.715a4.498 4.498 0 00.322-1.672V3a.75.75 0 01.75-.75A2.25 2.25 0 0116.5 4.5c0 1.152-.26 2.243-.723 3.218-.266.558.107 1.282.725 1.282h3.126c1.026 0 1.945.694 2.054 1.715.045.422.068.85.068 1.285a11.95 11.95 0 01-2.649 7.521c-.388.482-.987.729-1.605.729H13.48c-.483 0-.964-.078-1.423-.23l-3.114-1.04a4.501 4.501 0 00-1.423-.23H5.904M14.25 9h2.25M5.904 18.75c.083.205.173.405.27.602.197.4-.078.898-.523.898h-.908c-.889 0-1.713-.518-1.972-1.368a12 12 0 01-.521-3.507c0-1.553.295-3.036.831-4.398C3.387 10.203 4.167 9.75 5 9.75h1.053c.472 0 .745.556.5.96a8.958 8.958 0 00-1.302 4.665c0 1.194.232 2.333.654 3.375z"/></symbol>
  <symbol fill="none" viewBox="0 0 24 24" stroke-width="1.5" stroke="currentColor" aria-hidden="true" id="hr-trash"><path stroke-linecap="round" stroke-linejoin="round" d="M14.74 9l-.346 9m-4.788 0L9.26 9m9.968-3.21c.342.052.682.107 1.022.166m-1.022-.165L18.16 19.673a2.25 2.25 0 01-2.244 2.077H8.084a2.25 2.25 0 01-2.244-2.077L4.772 5.79m14.456 0a48.108 48.108 0 00-3.478-.397m-12 .562c.34-.059.68-.114 1.022-.165m0 0a48.11 48.11 0 013.478-.397m7.5 0v-.916c0-1.18-.91-2.164-2.09-2.201a51.964 51.964 0 00-3.32 0c-1.18.037-2.09 1.022-2.09 2.201v.916m7.5 0a48.667 48.667 0 00-7.5 0"/></symbol>
  <symbol fill="none" viewBox="0 0 24 24" stroke-width="1.5" stroke="currentColor" aria-hidden="true" id="hr-forward"><path stroke-linecap="round" stroke-linejoin="round" d="M3 8.688c0-.864.933-1.405 1.683-.977l7.108 4.062a1.125 1.125 0 010 1.953l-7.108 4.062A1.125 1.125 0 013 16.81V8.688zM12.75 8.688c0-.864.933-1.405 1.683-.977l7.108 4.062a1.125 1.125 0 010 1.953l-7.108 4.062a1.125 1.125 0 01-1.683-.977V8.688z"/></symbol>
  <symbol fill="none" viewBox="0 0 24 24" stroke-width="1.5" stroke="currentColor" aria-hidden="true" id="hr-document"><path stroke-linecap="round" stroke-linejoin="round" d="M19.5 14.25v-2.625a3.375 3.375 0 00-3.375-3.375h-1.5A1.125 1.125 0 0113.5 7.125v-1.5a3.375 3.375 0 00-3.375-3.375H8.25m2.25 0H5.625c-.621 0-1.125.504-1.125 1.125v17.25c0 .621.504 1.125 1.125 1.125h12.75c.621 0 1.125-.504 1.125-1.125V11.25a9 9 0 00-9-9z"/></symbol>
  <symbol fill="none" viewBox="0 0 24 24" stroke-width="1.5" stroke="currentColor" aria-hidden="true" id="hr-funnel"><path stroke-linecap="round" stroke-linejoin="round" d="M12 3c2.755 0 5.455.232 8.083.678.533.09.917.556.917 1.096v1.044a2.25 2.25 0 01-.659 1.591l-5.432 5.432a2.25 2.25 0 00-.659 1.591v2.927a2.25 2.25 0 01-1.244 2.013L9.75 21v-6.568a2.25 2.25 0 00-.659-1.591L3.659 7.409A2.25 2.25 0 013 5.818V4.774c0-.54.384-1.006.917-1.096A48.32 48.32 0 0112 3z"/></symbol>
  <symbol fill="none" viewBox="0 0 24 24" stroke-width="1.5" stroke="currentColor" aria-hidden="true" id="hr-flag"><path stroke-linecap="round" stroke-linejoin="round" d="M3 3v1.5M3 21v-6m0 0l2.77-.693a9 9 0 016.208.682l.108.054a9 9 0 006.086.71l3.114-.732a48.524 48.524 0 01-.005-10.499l-3.11.732a9 9 0 01-6.085-.711l-.108-.054a9 9 0 00-6.208-.682L3 4.5M3 15V4.5"/></symbol>
  <symbol fill="none" viewBox="0 0 24 24" stroke-width="1.5" stroke="currentColor" aria-hidden="true" id="hr-folder-open"><path stroke-linecap="round" stroke-linejoin="round" d="M3.75 9.776c.112-.017.227-.026.344-.026h15.812c.117 0 .232.009.344.026m-16.5 0a2.25 2.25 0 00-1.883 2.542l.857 6a2.25 2.25 0 002.227 1.932H19.05a2.25 2.25 0 002.227-1.932l.857-6a2.25 2.25 0 00-1.883-2.542m-16.5 0V6A2.25 2.25 0 016 3.75h3.879a1.5 1.5 0 011.06.44l2.122 2.12a1.5 1.5 0 001.06.44H18A2.25 2.25 0 0120.25 9v.776"/></symbol>
  <symbol fill="none" viewBox="0 0 24 24" stroke-width="1.5" stroke="currentColor" aria-hidden="true" id="hr-folder"><path stroke-linecap="round" stroke-linejoin="round" d="M2.25 12.75V12A2.25 2.25 0 014.5 9.75h15A2.25 2.25 0 0121.75 12v.75m-8.69-6.44l-2.12-2.12a1.5 1.5 0 00-1.061-.44H4.5A2.25 2.25 0 002.25 6v12a2.25 2.25 0 002.25 2.25h15A2.25 2.25 0 0021.75 18V9a2.25 2.25 0 00-2.25-2.25h-5.379a1.5 1.5 0 01-1.06-.44z"/></symbol>
  <symbol fill="none" viewBox="0 0 24 24" stroke-width="1.5" stroke="currentColor" aria-hidden="true" id="hr-home"><path stroke-linecap="round" stroke-linejoin="round" d="M2.25 12l8.954-8.955c.44-.439 1.152-.439 1.591 0L21.75 12M4.5 9.75v10.125c0 .621.504 1.125 1.125 1.125H9.75v-4.875c0-.621.504-1.125 1.125-1.125h2.25c.621 0 1.125.504 1.125 1.125V21h4.125c.621 0 1.125-.504 1.125-1.125V9.75M8.25 21h8.25"/></symbol>
  <symbol fill="none" viewBox="0 0 24 24" stroke-width="1.5" stroke="currentColor" aria-hidden="true" id="hr-information-circle"><path stroke-linecap="round" stroke-linejoin="round" d="M11.25 11.25l.041-.02a.75.75 0 011.063.852l-.708 2.836a.75.75 0 001.063.853l.041-.021M21 12a9 9 0 11-18 0 9 9 0 0118 0zm-9-3.75h.008v.008H12V8.25z"/></symbol>
  <symbol fill="none" viewBox="0 0 24 24" stroke-width="1.5" stroke="currentColor" aria-hidden="true" id="hr-key"><path stroke-linecap="round" stroke-linejoin="round" d="M15.75 5.25a3 3 0 013 3m3 0a6 6 0 01-7.029 5.912c-.563-.097-1.159.026-1.563.43L10.5 17.25H8.25v2.25H6v2.25H2.25v-2.818c0-.597.237-1.17.659-1.591l6.499-6.499c.404-.404.527-1 .43-1.563A6 6 0 1121.75 8.25z"/></symbol>
  <symbol fill="none" viewBox="0 0 24 24" stroke-width="1.5" stroke="currentColor" aria-hidden="true" id="hr-circle-stack"><path stroke-linecap="round" stroke-linejoin="round" d="M20.25 6.375c0 2.278-3.694 4.125-8.25 4.125S3.75 8.653 3.75 6.375m16.5 0c0-2.278-3.694-4.125-8.25-4.125S3.75 4.097 3.75 6.375m16.5 0v11.25c0 2.278-3.694 4.125-8.25 4.125s-8.25-1.847-8.25-4.125V6.375m16.5 0v3.75m-16.5-3.75v3.75m16.5 0v3.75C20.25 16.153 16.556 18 12 18s-8.25-1.847-8.25-4.125v-3.75m16.5 0c0 2.278-3.694 4.125-8.25 4.125s-8.25-1.847-8.25-4.125"/></symbol>
  <symbol fill="none" viewBox="0 0 24 24" stroke-width="1.5" stroke="currentColor" aria-hidden="true" id="hr-link"><path stroke-linecap="round" stroke-linejoin="round" d="M13.19 8.688a4.5 4.5 0 011.242 7.244l-4.5 4.5a4.5 4.5 0 01-6.364-6.364l1.757-1.757m13.35-.622l1.757-1.757a4.5 4.5 0 00-6.364-6.364l-4.5 4.5a4.5 4.5 0 001.242 7.244"/></symbol>
  <symbol fill="none" viewBox="0 0 24 24" stroke-width="1.5" stroke="currentColor" aria-hidden="true" id="hr-lock-closed"><path stroke-linecap="round" stroke-linejoin="round" d="M16.5 10.5V6.75a4.5 4.5 0 10-9 0v3.75m-.75 11.25h10.5a2.25 2.25 0 002.25-2.25v-6.75a2.25 2.25 0 00-2.25-2.25H6.75a2.25 2.25 0 00-2.25 2.25v6.75a2.25 2.25 0 002.25 2.25z"/></symbol>
  <symbol fill="none" viewBox="0 0 24 24" stroke-width="1.5" stroke="currentColor" aria-hidden="true" id="hr-map-pin"><path stroke-linecap="round" stroke-linejoin="round" d="M15 10.5a3 3 0 11-6 0 3 3 0 016 0z"/><path stroke-linecap="round" stroke-linejoin="round" d="M19.5 10.5c0 7.142-7.5 11.25-7.5 11.25S4.5 17.642 4.5 10.5a7.5 7.5 0 1115 0z"/></symbol>
  <symbol fill="none" viewBox="0 0 24 24" stroke-width="1.5" stroke="currentColor" aria-hidden="true" id="hr-users"><path stroke-linecap="round" stroke-linejoin="round" d="M15 19.128a9.38 9.38 0 002.625.372 9.337 9.337 0 004.121-.952 4.125 4.125 0 00-7.533-2.493M15 19.128v-.003c0-1.113-.285-2.16-.786-3.07M15 19.128v.106A12.318 12.318 0 018.624 21c-2.331 0-4.512-.645-6.374-1.766l-.001-.109a6.375 6.375 0 0111.964-3.07M12 6.375a3.375 3.375 0 11-6.75 0 3.375 3.375 0 016.75 0zm8.25 2.25a2.625 2.625 0 11-5.25 0 2.625 2.625 0 015.25 0z"/></symbol>
  <symbol fill="none" viewBox="0 0 24 24" stroke-width="1.5" stroke="currentColor" aria-hidden="true" id="hr-user"><path stroke-linecap="round" stroke-linejoin="round" d="M15.75 6a3.75 3.75 0 11-7.5 0 3.75 3.75 0 017.5 0zM4.501 20.118a7.5 7.5 0 0114.998 0A17.933 17.933 0 0112 21.75c-2.676 0-5.216-.584-7.499-1.632z"/></symbol>
  <symbol fill="none" viewBox="0 0 24 24" stroke-width="1.5" stroke="currentColor" aria-hidden="true" id="hr-user-plus"><path stroke-linecap="round" stroke-linejoin="round" d="M19 7.5v3m0 0v3m0-3h3m-3 0h-3m-2.25-4.125a3.375 3.375 0 11-6.75 0 3.375 3.375 0 016.75 0zM4 19.235v-.11a6.375 6.375 0 0112.75 0v.109A12.318 12.318 0 0110.374 21c-2.331 0-4.512-.645-6.374-1.766z"/></symbol>
  <symbol fill="none" viewBox="0 0 24 24" stroke-width="1.5" stroke="currentColor" aria-hidden="true" id="hr-arrow-uturn-left"><path stroke-linecap="round" stroke-linejoin="round" d="M9 15L3 9m0 0l6-6M3 9h12a6 6 0 010 12h-3"/></symbol>
  <symbol fill="none" viewBox="0 0 24 24" stroke-width="1.5" stroke="currentColor" aria-hidden="true" id="hr-plus"><path stroke-linecap="round" stroke-linejoin="round" d="M12 4.5v15m7.5-7.5h-15"/></symbol>
  <symbol fill="none" viewBox="0 0 24 24" stroke-width="1.5" stroke="currentColor" aria-hidden="true" id="hr-magnifying-glass"><path stroke-linecap="round" stroke-linejoin="round" d="M21 21l-5.197-5.197m0 0A7.5 7.5 0 105.196 5.196a7.5 7.5 0 0010.607 10.607z"/></symbol>
  <symbol fill="none" viewBox="0 0 24 24" stroke-width="1.5" stroke="currentColor" aria-hidden="true" id="hr-share"><path stroke-linecap="round" stroke-linejoin="round" d="M7.217 10.907a2.25 2.25 0 100 2.186m0-2.186c.18.324.283.696.283 1.093s-.103.77-.283 1.093m0-2.186l9.566-5.314m-9.566 7.5l9.566 5.314m0 0a2.25 2.25 0 103.935 2.186 2.25 2.25 0 00-3.935-2.186zm0-12.814a2.25 2.25 0 103.933-2.185 2.25 2.25 0 00-3.933 2.185z"/></symbol>
  <symbol fill="none" viewBox="0 0 24 24" stroke-width="1.5" stroke="currentColor" aria-hidden="true" id="hr-arrow-left-on-rectangle"><path stroke-linecap="round" stroke-linejoin="round" d="M15.75 9V5.25A2.25 2.25 0 0013.5 3h-6a2.25 2.25 0 00-2.25 2.25v13.5A2.25 2.25 0 007.5 21h6a2.25 2.25 0 002.25-2.25V15M12 9l-3 3m0 0l3 3m-3-3h12.75"/></symbol>
  <symbol fill="none" viewBox="0 0 24 24" stroke-width="1.5" stroke="currentColor" aria-hidden="true" id="hr-arrow-right-on-rectangle"><path stroke-linecap="round" stroke-linejoin="round" d="M15.75 9V5.25A2.25 2.25 0 0013.5 3h-6a2.25 2.25 0 00-2.25 2.25v13.5A2.25 2.25 0 007.5 21h6a2.25 2.25 0 002.25-2.25V15m3 0l3-3m0 0l-3-3m3 3H9"/></symbol>
  <symbol fill="none" viewBox="0 0 24 24" stroke-width="1.5" stroke="currentColor" aria-hidden="true" id="hr-adjustments-horizontal"><path stroke-linecap="round" stroke-linejoin="round" d="M10.5 6h9.75M10.5 6a1.5 1.5 0 11-3 0m3 0a1.5 1.5 0 10-3 0M3.75 6H7.5m3 12h9.75m-9.75 0a1.5 1.5 0 01-3 0m3 0a1.5 1.5 0 00-3 0m-3.75 0H7.5m9-6h3.75m-3.75 0a1.5 1.5 0 01-3 0m3 0a1.5 1.5 0 00-3 0m-9.75 0h9.75"/></symbol>
  <symbol fill="none" viewBox="0 0 24 24" stroke-width="1.5" stroke="currentColor" aria-hidden="true" id="hr-arrow-path"><path stroke-linecap="round" stroke-linejoin="round" d="M16.023 9.348h4.992v-.001M2.985 19.644v-4.992m0 0h4.992m-4.993 0l3.181 3.183a8.25 8.25 0 0013.803-3.7M4.031 9.865a8.25 8.25 0 0113.803-3.7l3.181 3.182m0-4.991v4.99"/></symbol>
  <symbol fill="none" viewBox="0 0 24 24" stroke-width="1.5" stroke="currentColor" aria-hidden="true" id="hr-x-circle"><path stroke-linecap="round" stroke-linejoin="round" d="M9.75 9.75l4.5 4.5m0-4.5l-4.5 4.5M21 12a9 9 0 11-18 0 9 9 0 0118 0z"/></symbol>
  <symbol fill="none" viewBox="0 0 24 24" stroke-width="1.5" stroke="currentColor" aria-hidden="true" id="hr-x-mark"><path stroke-linecap="round" stroke-linejoin="round" d="M6 18L18 6M6 6l12 12"/></symbol>
  <symbol fill="none" viewBox="0 0 24 24" stroke-width="1.5" stroke="currentColor" aria-hidden="true" id="hr-lock-open"><path stroke-linecap="round" stroke-linejoin="round" d="M13.5 10.5V6.75a4.5 4.5 0 119 0v3.75M3.75 21.75h10.5a2.25 2.25 0 002.25-2.25v-6.75a2.25 2.25 0 00-2.25-2.25H3.75a2.25 2.25 0 00-2.25 2.25v6.75a2.25 2.25 0 002.25 2.25z"/></symbol>
  <symbol fill="none" viewBox="0 0 24 24" stroke-width="1.5" stroke="currentColor" aria-hidden="true" id="hr-arrow-up-tray"><path stroke-linecap="round" stroke-linejoin="round" d="M3 16.5v2.25A2.25 2.25 0 005.25 21h13.5A2.25 2.25 0 0021 18.75V16.5m-13.5-9L12 3m0 0l4.5 4.5M12 3v13.5"/></symbol>
  <symbol fill="none" viewBox="0 0 24 24" stroke-width="1.5" stroke="currentColor" aria-hidden="true" id="hr-video-camera"><path stroke-linecap="round" d="M15.75 10.5l4.72-4.72a.75.75 0 011.28.53v11.38a.75.75 0 01-1.28.53l-4.72-4.72M4.5 18.75h9a2.25 2.25 0 002.25-2.25v-9a2.25 2.25 0 00-2.25-2.25h-9A2.25 2.25 0 002.25 7.5v9a2.25 2.25 0 002.25 2.25z"/></symbol>
</svg>
